<?xml version="1.0" encoding="utf-8"?>
<!-- Generator: Adobe Illustrator 21.0.0, SVG Export Plug-In . SVG Version: 6.00 Build 0)  -->
<svg version="1.1" id="Layer_1" xmlns="http://www.w3.org/2000/svg" xmlns:xlink="http://www.w3.org/1999/xlink" x="0px" y="0px"
	 viewBox="0 0 32 32" style="enable-background:new 0 0 32 32;" xml:space="preserve">
<g id="Outline">
	<g>
		<path d="M27.5,10.8c1.3,0,2.3-1,2.3-2.3s-1-2.3-2.3-2.3s-2.3,1-2.3,2.3S26.3,10.8,27.5,10.8z M27.5,7.2c0.7,0,1.3,0.6,1.3,1.3
			c0,0.7-0.6,1.3-1.3,1.3s-1.3-0.6-1.3-1.3C26.3,7.8,26.8,7.2,27.5,7.2z"/>
		<path d="M29.5,11.5l-2,1.5l-2-1.5c-2.4,0.7-2.4,3.2-2.4,3.2h4.4h4.4C31.9,14.8,32,12.3,29.5,11.5z"/>
		<path d="M13.7,8.5c0,1.3,1,2.3,2.3,2.3s2.3-1,2.3-2.3s-1-2.3-2.3-2.3S13.7,7.2,13.7,8.5z M16,7.2c0.7,0,1.3,0.6,1.3,1.3
			c0,0.7-0.6,1.3-1.3,1.3s-1.3-0.6-1.3-1.3S15.3,7.2,16,7.2z"/>
		<path d="M18,11.5L16,13l-2-1.5c-2.4,0.7-2.4,3.2-2.4,3.2H16h4.4C20.4,14.8,20.4,12.3,18,11.5z"/>
		<path d="M4.5,10.8c1.3,0,2.3-1,2.3-2.3s-1-2.3-2.3-2.3c-1.3,0-2.3,1-2.3,2.3S3.2,10.8,4.5,10.8z M4.5,7.2c0.7,0,1.3,0.6,1.3,1.3
			c0,0.7-0.6,1.3-1.3,1.3S3.2,9.2,3.2,8.5C3.2,7.8,3.7,7.2,4.5,7.2z"/>
		<path d="M6.4,11.5l-2,1.5l-2-1.5c-2.4,0.7-2.4,3.2-2.4,3.2h4.4l0,0h4.4C8.9,14.8,8.9,12.3,6.4,11.5z"/>
		<rect y="21.8" width="9" height="1.4"/>
		<rect x="1.3" y="24.6" width="6.4" height="1.2"/>
		<rect x="11.5" y="21.8" width="9" height="1.4"/>
		<rect x="12.8" y="24.6" width="6.4" height="1.2"/>
		<rect x="23" y="21.8" width="9" height="1.4"/>
		<ellipse cx="4.5" cy="18.2" rx="1.3" ry="1.3"/>
		<ellipse cx="16" cy="18.2" rx="1.3" ry="1.3"/>
		<ellipse cx="27.5" cy="18.2" rx="1.3" ry="1.3"/>
		<rect x="24.3" y="24.6" width="6.4" height="1.2"/>
	</g>
</g>
</svg>
